<svg width="18" height="18" viewBox="0 0 18 18" fill="none" xmlns="http://www.w3.org/2000/svg">
<path fill-rule="evenodd" clip-rule="evenodd" d="M5.25 16.5C4.8375 16.5 4.48437 16.3531 4.19062 16.0594C3.89687 15.7656 3.75 15.4125 3.75 15L3.75 13.75H3.25C2.62868 13.75 2.125 13.2463 2.125 12.625L2.125 9C2.125 8.37868 2.62868 7.875 3.25 7.875H3.75L3.75 3C3.75 2.5875 3.89687 2.23438 4.19062 1.94063C4.48437 1.64688 4.8375 1.5 5.25 1.5L11.25 1.5L15.75 6L15.75 15C15.75 15.4125 15.6031 15.7656 15.3094 16.0594C15.0156 16.3531 14.6625 16.5 14.25 16.5H5.25ZM14.25 6.75L14.25 7.875L5.25 7.875L5.25 3L10.5 3V6.75H14.25ZM5.25 15V13.75L14.25 13.75V15L5.25 15ZM12.1959 12.8751H11.957L10.8062 8.87604H11.6658L12.3677 11.7983L13.0721 8.87604H13.94L12.7809 12.8751H12.5447H12.1959ZM9.1615 11.8231C9.1615 11.7517 9.15509 11.6867 9.14227 11.6281C9.12946 11.5695 9.10199 11.5155 9.05988 11.4661C9.01959 11.4166 8.96008 11.3672 8.88135 11.3177C8.80444 11.2683 8.70374 11.217 8.57922 11.1639C8.43091 11.1017 8.28717 11.0358 8.14801 10.9662C8.00885 10.8948 7.88342 10.8124 7.77173 10.719C7.66003 10.6256 7.57123 10.5157 7.50531 10.3894C7.44122 10.2612 7.40918 10.1111 7.40918 9.93896C7.40918 9.77051 7.43939 9.61761 7.49982 9.48029C7.56207 9.34296 7.64996 9.22577 7.76349 9.12872C7.87701 9.02985 8.00977 8.95386 8.16174 8.90076C8.31555 8.84766 8.48676 8.82111 8.67535 8.82111C8.9317 8.82111 9.15326 8.87421 9.34003 8.98041C9.52863 9.08661 9.67419 9.23218 9.77673 9.41711C9.8811 9.60205 9.93329 9.81445 9.93329 10.0543H9.13129C9.13129 9.9408 9.11481 9.841 9.08185 9.75494C9.05072 9.66705 9.00037 9.59839 8.93079 9.54895C8.86121 9.49951 8.77148 9.47479 8.66162 9.47479C8.55908 9.47479 8.47394 9.49585 8.40619 9.53796C8.34027 9.57825 8.29083 9.63409 8.25787 9.70551C8.22675 9.77509 8.21118 9.85382 8.21118 9.94171C8.21118 10.0076 8.22675 10.0671 8.25787 10.1202C8.29083 10.1715 8.33569 10.2182 8.39246 10.2603C8.44922 10.3006 8.51605 10.34 8.59296 10.3784C8.67169 10.4169 8.75775 10.4544 8.85114 10.491C9.03241 10.5624 9.19263 10.6412 9.33179 10.7272C9.47095 10.8115 9.58722 10.9067 9.6806 11.0129C9.77399 11.1172 9.84448 11.2354 9.89209 11.3672C9.9397 11.499 9.9635 11.6492 9.9635 11.8176C9.9635 11.9843 9.9342 12.1362 9.87561 12.2736C9.81885 12.4091 9.73553 12.5262 9.62567 12.6251C9.51581 12.7222 9.38306 12.7972 9.22742 12.8503C9.07361 12.9034 8.90149 12.93 8.71106 12.93C8.52612 12.93 8.35126 12.9044 8.18646 12.8531C8.02167 12.8 7.8761 12.7203 7.74976 12.6141C7.62524 12.5061 7.52728 12.3697 7.45587 12.2049C7.38446 12.0383 7.34876 11.8414 7.34876 11.6144L8.1535 11.6144C8.1535 11.7352 8.16541 11.8387 8.18921 11.9247C8.21301 12.009 8.24963 12.0767 8.29907 12.128C8.34851 12.1774 8.40894 12.215 8.48035 12.2406C8.55359 12.2644 8.6369 12.2763 8.73029 12.2763C8.83649 12.2763 8.92072 12.2562 8.98297 12.2159C9.04706 12.1756 9.09283 12.1216 9.1203 12.0538C9.14777 11.9861 9.1615 11.9092 9.1615 11.8231ZM6.40448 11.543H5.60522C5.59973 11.7352 5.57684 11.8835 5.53656 11.9879C5.49628 12.0923 5.43402 12.1646 5.34979 12.2049C5.2674 12.2452 5.15845 12.2653 5.02295 12.2653C4.90576 12.2653 4.80872 12.2461 4.73181 12.2076C4.65674 12.1692 4.59723 12.1078 4.55328 12.0236C4.50934 11.9394 4.4773 11.8314 4.45715 11.6995C4.43701 11.5659 4.42694 11.4047 4.42694 11.2161V10.5322C4.42694 10.34 4.43793 10.177 4.4599 10.0433C4.4837 9.90967 4.52032 9.80164 4.56976 9.71924C4.6192 9.63684 4.68237 9.57733 4.75928 9.54071C4.83618 9.50226 4.92773 9.48303 5.03394 9.48303C5.17676 9.48303 5.28845 9.50592 5.36902 9.5517C5.44959 9.59564 5.50818 9.67255 5.5448 9.78241C5.58325 9.89044 5.60431 10.0397 5.60797 10.2301H6.41272C6.39075 9.92798 6.32574 9.67255 6.21771 9.46381C6.11151 9.25323 5.96045 9.09302 5.76453 8.98315C5.5686 8.87329 5.32507 8.81836 5.03394 8.81836C4.81604 8.81836 4.62012 8.8559 4.44617 8.93097C4.27405 9.00421 4.12665 9.11407 4.00397 9.26056C3.88312 9.40521 3.78973 9.58466 3.72382 9.79889C3.65973 10.0131 3.62769 10.2594 3.62769 10.5377V11.2161C3.62769 11.4944 3.6579 11.7407 3.71832 11.955C3.78058 12.1674 3.87213 12.3459 3.99298 12.4905C4.11383 12.6352 4.26032 12.7451 4.43243 12.8201C4.60455 12.8934 4.80139 12.93 5.02295 12.93C5.30859 12.93 5.55212 12.8769 5.75354 12.7707C5.95679 12.6645 6.11334 12.5089 6.22321 12.3038C6.33307 12.0969 6.39349 11.8433 6.40448 11.543Z" fill="#202123"/>
</svg>
